<?xml version="1.0" encoding="UTF-8" standalone="no"?>
<!-- Created with Inkscape (http://www.inkscape.org/) -->

<svg
   width="100mm"
   height="100mm"
   viewBox="0 0 100 100"
   version="1.1"
   id="svg1"
   inkscape:version="1.4.2 (f4327f4, 2025-05-13)"
   sodipodi:docname="Pointer2.svg"
   xmlns:inkscape="http://www.inkscape.org/namespaces/inkscape"
   xmlns:sodipodi="http://sodipodi.sourceforge.net/DTD/sodipodi-0.dtd"
   xmlns="http://www.w3.org/2000/svg"
   xmlns:svg="http://www.w3.org/2000/svg">
  <sodipodi:namedview
     id="namedview1"
     pagecolor="#ffffff"
     bordercolor="#000000"
     borderopacity="0.25"
     inkscape:showpageshadow="2"
     inkscape:pageopacity="0.0"
     inkscape:pagecheckerboard="0"
     inkscape:deskcolor="#d1d1d1"
     inkscape:document-units="mm"
     inkscape:zoom="0.70822811"
     inkscape:cx="468.06953"
     inkscape:cy="374.87922"
     inkscape:window-width="1920"
     inkscape:window-height="991"
     inkscape:window-x="-9"
     inkscape:window-y="-9"
     inkscape:window-maximized="1"
     inkscape:current-layer="layer1" />
  <defs
     id="defs1" />
  <g
     inkscape:label="Layer 1"
     inkscape:groupmode="layer"
     id="layer1">
    <g
       id="g14"
       transform="matrix(0.4375,0,0,0.4375,9.4042096,15.65644)">
      <path
         style="fill:#ffffff;stroke:none"
         d="M 0,0 V 80 H 80 V 0 Z"
         id="path10" />
      <path
         style="fill:#000000;stroke:none"
         d="M 10,10 V 70 H 70 V 10 Z"
         id="path11" />
      <path
         style="fill:#ffffff;stroke:none"
         d="M 40,20 V 30 H 20 V 50 H 30 V 60 H 40 V 50 H 50 V 60 H 60 V 50 H 50 V 20 Z"
         id="path12" />
      <path
         style="fill:#000000;stroke:none"
         d="M 30,40 V 50 H 40 V 40 Z"
         id="path14" />
    </g>
    <g
       id="g17"
       transform="matrix(0.41964412,0.12371366,-0.12371366,0.41964412,58.838759,16.42847)">
      <path
         style="fill:#ffffff;stroke:none"
         d="M 0,0 V 80 H 80 V 0 Z"
         id="path15" />
      <path
         style="fill:#000000;stroke:none"
         d="M 10,10 V 70 H 70 V 10 Z"
         id="path16" />
      <path
         style="fill:#ffffff;stroke:none"
         d="M 40,20 V 40 H 50 V 50 H 40 V 60 H 60 V 30 H 50 V 20 H 40 M 20,50 V 60 H 30 V 50 Z"
         id="path17" />
    </g>
    <path
       style="vector-effect:non-scaling-stroke;fill:none;stroke:#000000;stroke-width:0.264583;stroke-linejoin:bevel;-inkscape-stroke:hairline"
       d="m 42.152799,83.031174 4.81909,-33.733684 0.18091,-36.26632 H 7.1527994 v 40.00001 h 9.9999996 c 0,0 0,29.999994 0,29.999994 z"
       id="path19" />
    <path
       style="vector-effect:non-scaling-stroke;fill:none;stroke:#000000;stroke-width:0.264583;stroke-linejoin:bevel;-inkscape-stroke:hairline"
       d="m 46.971899,49.29749 10.54654,-34.69939 38.32885,11.44115 -11.44115,38.32885 -9.58221,-2.86029 -8.58086,28.746624 -23.95553,-7.15072 4.68435,-33.806224"
       id="path20" />
  </g>
</svg>
